<svg xmlns="http://www.w3.org/2000/svg">
  <path fill-rule="evenodd" d="M117.998 10.137c.41 0 .614.35.455.69l-6.188 14.887a.504.504 0 0 1-.455.286h-2.184c-.41 0-.614-.316-.455-.678l2.116-5.282-3.276-9.198c-.137-.363.045-.705.455-.705h2.184c.227 0 .386.107.432.29l1.888 6.253h.046l2.389-6.254c.159-.272.341-.29.66-.29h1.933zM105.1 4.783c.25 0 .48.255.48.505v14.877c0 .273-.23.481-.48.481h-1.843a.47.47 0 0 1-.461-.48V5.287c0-.25.21-.505.46-.505h1.844zm-5.185 0c.25 0 .494.21.494.437v1.86c0 .226-.244.479-.494.479h-6.667v4.164H98.8c.228 0 .415.255.415.481v1.86c0 .227-.187.435-.415.435h-5.552v5.734c0 .227-.272.413-.5.413h-2.093c-.25 0-.391-.186-.391-.413V5.22c0-.228.14-.437.391-.437h9.26zM82.627 9.959c3.344 0 4.255 2.245 4.255 4.786v5.42c0 .273-.343.481-.593.481h-1.843c-.273 0-.547-.208-.547-.48v-5.421c0-1.36-.488-2.2-1.762-2.2-1.365 0-2.018.907-2.217 1.633v5.987c0 .386-.229.481-.73.481h-1.683c-.25 0-.57-.208-.57-.48v-9.48c0-.295.32-.55.57-.55h.864c.25 0 .376.139.444.343l.399 1c.387-.43 1.388-1.52 3.413-1.52zm-8.35 8.279l.296 1.383c.068.273-.046.476-.296.612-.364.205-1.866.68-2.958.68-2.343 0-2.936-1.564-2.936-3.378v-4.82H67.36c-.272 0-.57-.238-.57-.487v-1.543c0-.295.298-.548.57-.548h1.022V7.283c0-.272.253-.517.503-.517h1.865c.274 0 .417.245.417.517v2.854h2.518c.274 0 .465.253.465.548v1.543c0 .25-.191.487-.465.487h-2.518v4.729c0 .703.372.862.895.862.455 0 1.35-.25 1.623-.34.296-.114.546.022.592.272zm-12.76-4.083c2.024.817 3.48 1.542 3.48 3.629 0 1.656-1.41 3.13-4.05 3.13-1.751 0-2.843-.545-3.435-.953a.46.46 0 0 1-.136-.567l.682-1.36c.114-.25.364-.341.615-.182.477.295 1.228.68 2.32.68.797 0 1.16-.294 1.16-.748 0-.477-.59-.907-1.979-1.451-2.024-.772-2.935-1.724-2.935-3.312 0-1.587 1.206-3.062 3.777-3.062 1.547 0 2.548.409 3.117.772.227.181.364.454.227.725l-.591 1.202a.526.526 0 0 1-.66.204c-.5-.226-1.229-.521-2.093-.521-.705 0-1.001.34-1.001.68 0 .477.523.726 1.501 1.134zm-11.783 4.173c-1.525 0-2.73-1.315-2.73-2.925 0-1.588 1.205-2.858 2.73-2.858 1.524 0 2.753 1.27 2.753 2.858 0 1.61-1.229 2.925-2.753 2.925m0-8.369c2.98 0 5.392 2.495 5.392 5.444 0 2.993-2.412 5.51-5.392 5.51-2.958 0-5.37-2.517-5.37-5.51 0-2.95 2.412-5.444 5.37-5.444zm-8.597-5.176c.227 0 .392.21.392.437v15.013c0 .227-.165.413-.392.413h-2.093c-.25 0-.499-.186-.499-.413v-6.329h-7.36v6.33a.409.409 0 0 1-.423.412h-2.115c-.228 0-.445-.186-.445-.413V5.22c0-.228.217-.437.445-.437h2.115c.25 0 .423.21.423.437v6.106h7.36V5.22c0-.228.249-.437.499-.437h2.093zM9.304 23.556v.724a.73.73 0 0 1-.73.729H7.45a.73.73 0 0 1-.732-.73v-.723a.73.73 0 0 1 .732-.729h1.123a.73.73 0 0 1 .731.73zM10.503.302c3.194.742 5.722 2.938 5.722 7.55 0 4.744-5.135 10.031-7.158 11.93 2.092-3.617 3.448-8.748 3.448-11.794 0-2.44-.633-5.945-2.012-7.686zM3.68 7.989c0 2.89 1.222 7.66 3.136 11.23C4.448 16.977 0 12.19 0 7.852 0 3.109 2.484.92 5.74.242 4.327 1.961 3.68 5.52 3.68 7.988zm4.417 12.025c-2.233-3.515-3.704-8.905-3.704-12.025 0-3.291 1.084-7.265 2.699-7.942.29-.025.583-.041.88-.047.398.008.792.032 1.18.074 1.587.738 2.65 4.658 2.65 7.915 0 3.12-1.471 8.51-3.705 12.025z"/>
</svg>
