<?xml version="1.0" encoding="UTF-8"?>
<svg width="119px" height="26px" viewBox="0 0 119 26" version="1.1" xmlns="http://www.w3.org/2000/svg" xmlns:xlink="http://www.w3.org/1999/xlink">
    <!-- Generator: Sketch 49 (51002) - http://www.bohemiancoding.com/sketch -->
    <title>HnF Logo / White</title>
    <desc>Created with Sketch.</desc>
    <defs></defs>
    <g id="Homepage" stroke="none" stroke-width="1" fill="none" fill-rule="evenodd">
        <g id="Mobile" transform="translate(-16.000000, -23.000000)" fill="#FFFFFF">
            <g id="Header" transform="translate(16.000000, 23.000000)">
                <g id="HnF-Logo-/-White">
                    <path d="M117.998205,10.1367171 C118.407976,10.1367171 118.612463,10.4865025 118.453329,10.8265716 L112.264994,25.7136677 C112.196566,25.8721023 112.014755,26 111.80987,26 L109.62595,26 C109.216378,26 109.011692,25.6843207 109.170826,25.3216464 L111.286716,20.0395697 L108.010538,10.8420383 C107.87408,10.4787691 108.05609,10.1367171 108.465662,10.1367171 L110.649781,10.1367171 C110.877343,10.1367171 111.036477,10.2441908 111.08183,10.4264203 L112.970357,16.6803213 L113.01571,16.6803213 L115.404714,10.4264203 C115.563848,10.1537701 115.746057,10.1367171 116.064325,10.1367171 L117.998205,10.1367171 Z M105.099793,4.78285911 C105.350031,4.78285911 105.580577,5.03825797 105.580577,5.28770809 L105.580577,20.165088 C105.580577,20.4375398 105.350031,20.646142 105.099793,20.646142 L103.256819,20.646142 C103.00658,20.646142 102.795727,20.4375398 102.795727,20.165088 L102.795727,5.28770809 C102.795727,5.03825797 103.00658,4.78285911 103.256819,4.78285911 L105.099793,4.78285911 Z M99.9148988,4.78285911 C100.165137,4.78285911 100.408812,4.99245274 100.408812,5.21969427 L100.408812,7.07966419 C100.408812,7.30591426 100.165137,7.55893362 99.9148988,7.55893362 L93.2477682,7.55893362 L93.2477682,11.7230454 L98.800163,11.7230454 C99.0275261,11.7230454 99.2153046,11.9782459 99.2153046,12.204496 L99.2153046,14.0644659 C99.2153046,14.2913109 99.0275261,14.4991199 98.800163,14.4991199 L93.2477682,14.4991199 L93.2477682,20.2334984 C93.2477682,20.4597484 92.9758475,20.646142 92.7482854,20.646142 L90.6552715,20.646142 C90.4048339,20.646142 90.264,20.4597484 90.264,20.2334984 L90.264,5.21969427 C90.264,4.99245274 90.4048339,4.78285911 90.6552715,4.78285911 L99.9148988,4.78285911 Z M82.6268863,9.95944491 C85.9712926,9.95944491 86.8823364,12.204496 86.8823364,14.7448025 L86.8823364,20.165088 C86.8823364,20.4375398 86.5392031,20.646142 86.2887655,20.646142 L84.4459903,20.646142 C84.1730749,20.646142 83.8985683,20.4375398 83.8985683,20.165088 L83.8985683,14.7448025 C83.8985683,13.384526 83.4110205,12.5449617 82.1369515,12.5449617 C80.7719771,12.5449617 80.1191286,13.4517466 79.9202107,14.1780867 L79.9202107,20.165088 C79.9202107,20.550764 79.6910573,20.646142 79.1905799,20.646142 L77.506939,20.646142 C77.2567003,20.646142 76.9364425,20.4375398 76.9364425,20.165088 L76.9364425,10.6851901 C76.9364425,10.3905296 77.2567003,10.1367171 77.506939,10.1367171 L78.3714361,10.1367171 C78.6216748,10.1367171 78.746993,10.2747277 78.8154208,10.4787691 L79.2138533,11.4793457 C79.6005497,11.048261 80.6019023,9.95944491 82.6268863,9.95944491 Z M74.2778056,18.2377784 L74.5733976,19.6208584 C74.6414275,19.8935086 74.5274476,20.0971535 74.2772089,20.2333794 C73.9131891,20.4376192 72.4111602,20.9133194 71.3191011,20.9133194 C68.9758485,20.9133194 68.3828743,19.3488031 68.3828743,17.5346384 L68.3828743,12.7145799 L67.361431,12.7145799 C67.0885157,12.7145799 66.7915313,12.4772255 66.7915313,12.2277754 L66.7915313,10.6850711 C66.7915313,10.3904106 67.0885157,10.1367964 67.361431,10.1367964 L68.3828743,10.1367964 L68.3828743,7.2833884 C68.3828743,7.0111348 68.6356989,6.76584879 68.8859376,6.76584879 L70.7513895,6.76584879 C71.0247026,6.76584879 71.1677246,7.0111348 71.1677246,7.2833884 L71.1677246,10.1367964 L73.6862238,10.1367964 C73.959537,10.1367964 74.1514928,10.3904106 74.1514928,10.6850711 L74.1514928,12.2277754 C74.1514928,12.4772255 73.959537,12.7145799 73.6862238,12.7145799 L71.1677246,12.7145799 L71.1677246,17.4436228 C71.1677246,18.1467628 71.5398999,18.3055939 72.063054,18.3055939 C72.5181781,18.3055939 73.4133085,18.0557472 73.6862238,17.9651282 C73.9822136,17.8521023 74.2324523,17.9883283 74.2778056,18.2377784 Z M61.5164082,14.1549263 C63.5413922,14.9716871 64.997471,15.6974323 64.997471,17.7840489 C64.997471,19.439779 63.5867454,20.9132797 60.9479009,20.9132797 C59.1958322,20.9132797 58.103773,20.3691691 57.5121913,19.9608879 C57.3757336,19.8702689 57.2619526,19.6208187 57.3757336,19.3939738 L58.0584198,18.033499 C58.1722008,17.7840489 58.4224395,17.6930333 58.6726782,17.8520627 C59.1504789,18.1467232 59.901195,18.5325975 60.9932541,18.5325975 C61.7895224,18.5325975 62.1535421,18.2377388 62.1535421,17.7840489 C62.1535421,17.3073572 61.5621593,16.8768674 60.1741103,16.3327568 C58.1495241,15.5612063 57.2392759,14.6086162 57.2392759,13.0212965 C57.2392759,11.4339767 58.4451161,9.95948457 61.0159308,9.95948457 C62.563114,9.95948457 63.5640688,10.3677658 64.1329739,10.731035 C64.3603371,10.9120747 64.4969936,11.1845266 64.3603371,11.4561853 L63.7689542,12.6582256 C63.609621,12.9076757 63.3365067,12.952886 63.1089447,12.8624653 C62.6084673,12.636017 61.8804279,12.3407616 61.0159308,12.3407616 C60.310568,12.3407616 60.014976,12.6814256 60.014976,13.0212965 C60.014976,13.4975915 60.53813,13.7470417 61.5164082,14.1549263 Z M49.7338259,18.3282983 C48.2093193,18.3282983 47.0034791,17.0126372 47.0034791,15.4027123 C47.0034791,13.814996 48.2093193,12.5449419 49.7338259,12.5449419 C51.2583325,12.5449419 52.4868493,13.814996 52.4868493,15.4027123 C52.4868493,17.0126372 51.2583325,18.3282983 49.7338259,18.3282983 M49.7338259,9.95942508 C52.7144114,9.95942508 55.1256939,12.4539263 55.1256939,15.4027123 C55.1256939,18.3961138 52.7144114,20.9134185 49.7338259,20.9134185 C46.7763149,20.9134185 44.3646345,18.3961138 44.3646345,15.4027123 C44.3646345,12.4539263 46.7763149,9.95942508 49.7338259,9.95942508 Z M41.136814,4.78285911 C41.3643761,4.78285911 41.5290801,4.99245274 41.5290801,5.21969427 L41.5290801,20.2334984 C41.5290801,20.4597484 41.3643761,20.646142 41.136814,20.646142 L39.0438001,20.646142 C38.7935614,20.646142 38.5453119,20.4597484 38.5453119,20.2334984 L38.5453119,13.9042468 L31.1853504,13.9042468 L31.1853504,20.2334984 C31.1853504,20.4597484 31.0126897,20.646142 30.762451,20.646142 L28.6465615,20.646142 C28.4191984,20.646142 28.2015822,20.4597484 28.2015822,20.2334984 L28.2015822,5.21969427 C28.2015822,4.99245274 28.4191984,4.78285911 28.6465615,4.78285911 L30.762451,4.78285911 C31.0126897,4.78285911 31.1853504,4.99245274 31.1853504,5.21969427 L31.1853504,11.3264633 L38.5453119,11.3264633 L38.5453119,5.21969427 C38.5453119,4.99245274 38.7935614,4.78285911 39.0438001,4.78285911 L41.136814,4.78285911 Z M9.30432409,23.5562216 L9.30432409,24.2795873 C9.30432409,24.6821181 8.97690526,25.0085052 8.57310197,25.0085052 L7.44961379,25.0085052 C7.04581049,25.0085052 6.71839167,24.6821181 6.71839167,24.2795873 L6.71839167,23.5562216 C6.71839167,23.1536908 7.04581049,22.8273038 7.44961379,22.8273038 L8.57310197,22.8273038 C8.97690526,22.8273038 9.30432409,23.1536908 9.30432409,23.5562216 Z M10.5027247,0.301541179 C13.6973459,1.04394282 16.2245975,3.24021434 16.2245975,7.85186897 C16.2245975,12.5961803 11.0897314,17.8832142 9.06693549,19.7822475 C11.1591537,16.165419 12.514978,11.0336469 12.514978,7.98849149 C12.514978,5.54852029 11.8818224,2.04332964 10.5027247,0.301541179 Z M3.67958291,7.98851132 C3.67958291,10.8791981 4.90233111,15.6484941 6.8159211,19.2191207 C4.44840051,16.9772423 0,12.1883155 0,7.85169051 C0,3.10916379 2.4844843,0.920625623 5.73977538,0.241280533 C4.32745844,1.96165356 3.67958291,5.52038279 3.67958291,7.98851132 Z M8.09735008,20.0135143 C5.86409905,16.4988057 4.39310134,11.109057 4.39310134,7.98855098 C4.39310134,4.69791123 5.47720378,0.723563992 7.09162128,0.0465983935 C7.38184247,0.021812014 7.67544526,0.00594873109 7.97262857,0 C8.36966865,0.00773335042 8.7641228,0.0319248568 9.15280834,0.0739625566 C10.7393773,0.812001794 11.8015988,4.73241387 11.8015988,7.98855098 C11.8015988,11.109057 10.3306011,16.4988057 8.09735008,20.0135143 Z" id="HnF-Logo"></path>
                </g>
            </g>
        </g>
    </g>
</svg>